<svg width="150" height="153" viewBox="0 0 150 153" fill="none" xmlns="http://www.w3.org/2000/svg">
<circle cx="24.3614" cy="24.7281" r="4.21293" fill="#DA2028"/>
<circle cx="44.5098" cy="24.7281" r="4.21293" fill="#DA2028"/>
<circle cx="44.5098" cy="11.2129" r="4.21293" fill="#DA2028"/>
<circle cx="105.213" cy="11.2129" r="4.21293" fill="#DA2028"/>
<circle cx="64.6602" cy="4.21293" r="4.21293" fill="#DA2028"/>
<circle cx="84.8067" cy="4.21293" r="4.21293" fill="#DA2028"/>
<circle cx="64.6602" cy="24.7281" r="4.21293" fill="#DA2028"/>
<circle cx="84.8067" cy="24.7281" r="4.21293" fill="#DA2028"/>
<circle cx="104.957" cy="24.7281" r="4.21293" fill="#DA2028"/>
<circle cx="24.3614" cy="45.2432" r="4.21293" fill="#DA2028"/>
<circle cx="44.5098" cy="45.2432" r="4.21293" fill="#DA2028"/>
<circle cx="4.21293" cy="65.7583" r="4.21293" fill="#DA2028"/>
<circle cx="8.21293" cy="45.2129" r="4.21293" fill="#DA2028"/>
<circle cx="141.213" cy="45.2129" r="4.21293" fill="#DA2028"/>
<circle cx="24.3614" cy="65.7583" r="4.21293" fill="#DA2028"/>
<circle cx="44.5098" cy="65.7583" r="4.21293" fill="#DA2028"/>
<circle cx="64.6602" cy="45.2432" r="4.21293" fill="#DA2028"/>
<circle cx="84.8067" cy="45.2432" r="4.21293" fill="#DA2028"/>
<circle cx="104.957" cy="45.2432" r="4.21293" fill="#DA2028"/>
<circle cx="64.6602" cy="65.7583" r="4.21293" fill="#DA2028"/>
<circle cx="84.8067" cy="65.7583" r="4.21293" fill="#DA2028"/>
<circle cx="104.957" cy="65.7583" r="4.21293" fill="#DA2028"/>
<circle cx="4.21293" cy="86.2735" r="4.21293" fill="#DA2028"/>
<circle cx="24.3614" cy="86.2735" r="4.21293" fill="#DA2028"/>
<circle cx="44.5098" cy="86.2735" r="4.21293" fill="#DA2028"/>
<circle cx="24.3614" cy="106.789" r="4.21293" fill="#DA2028"/>
<circle cx="10.2129" cy="106.789" r="4.21293" fill="#DA2028"/>
<circle cx="139.213" cy="106.789" r="4.21293" fill="#DA2028"/>
<circle cx="44.5098" cy="106.789" r="4.21293" fill="#DA2028"/>
<circle cx="64.6602" cy="86.2735" r="4.21293" fill="#DA2028"/>
<circle cx="84.8067" cy="86.2735" r="4.21293" fill="#DA2028"/>
<circle cx="104.957" cy="86.2735" r="4.21293" fill="#DA2028"/>
<circle cx="64.6602" cy="106.789" r="4.21293" fill="#DA2028"/>
<circle cx="84.8067" cy="106.789" r="4.21293" fill="#DA2028"/>
<circle cx="104.957" cy="106.789" r="4.21293" fill="#DA2028"/>
<circle cx="24.3614" cy="127.304" r="4.21293" fill="#DA2028"/>
<circle cx="44.5098" cy="127.304" r="4.21293" fill="#DA2028"/>
<circle cx="44.5098" cy="141.213" r="4.21293" fill="#DA2028"/>
<circle cx="105.213" cy="141.213" r="4.21293" fill="#DA2028"/>
<circle cx="64.6602" cy="127.304" r="4.21293" fill="#DA2028"/>
<circle cx="84.8067" cy="127.304" r="4.21293" fill="#DA2028"/>
<circle cx="104.957" cy="127.304" r="4.21293" fill="#DA2028"/>
<circle cx="64.6602" cy="147.819" r="4.21293" fill="#DA2028"/>
<circle cx="84.8067" cy="147.819" r="4.21293" fill="#DA2028"/>
<circle cx="125.106" cy="24.7281" r="4.21293" fill="#DA2028"/>
<circle cx="125.106" cy="45.2432" r="4.21293" fill="#DA2028"/>
<circle cx="125.106" cy="65.7583" r="4.21293" fill="#DA2028"/>
<circle cx="145.254" cy="65.7583" r="4.21293" fill="#DA2028"/>
<circle cx="125.106" cy="86.2735" r="4.21293" fill="#DA2028"/>
<circle cx="145.254" cy="86.2735" r="4.21293" fill="#DA2028"/>
<circle cx="125.106" cy="106.789" r="4.21293" fill="#DA2028"/>
<circle cx="125.106" cy="127.304" r="4.21293" fill="#DA2028"/>
</svg>
